<svg width="40" height="40" viewBox="0 0 40 40" fill="none" xmlns="http://www.w3.org/2000/svg">
<path d="M38.4381 9.56245C37.3963 8.52086 36.1396 7.99993 34.6673 7.99993H30.0006L28.9383 5.16677C28.6743 4.48631 28.1919 3.89941 27.4901 3.40613C26.7887 2.91307 26.07 2.66635 25.3338 2.66635H14.6668C13.9307 2.66635 13.2119 2.91307 12.5104 3.40613C11.8089 3.89941 11.3264 4.48631 11.0625 5.16677L10.0001 7.99993H5.33336C3.86088 7.99993 2.60418 8.52086 1.56238 9.56245C0.520792 10.6041 0 11.861 0 13.3333V32.0001C0 33.4725 0.520792 34.7295 1.56238 35.7709C2.60418 36.8127 3.86095 37.3336 5.33336 37.3336H34.6668C36.1391 37.3336 37.3957 36.8127 38.4376 35.7709C39.4791 34.7295 40 33.4725 40 32.0001V13.3333C40.0003 11.861 39.4794 10.6041 38.4381 9.56245ZM26.5939 29.2607C24.7675 31.0872 22.5698 32.0006 20.0001 32.0006C17.4304 32.0006 15.2329 31.0872 13.4063 29.2607C11.5798 27.4346 10.6667 25.2363 10.6667 22.6673C10.6667 20.0974 11.5801 17.8999 13.4063 16.0733C15.2326 14.2468 17.4305 13.3337 20.0001 13.3337C22.5697 13.3337 24.7675 14.247 26.5939 16.0733C28.4204 17.8996 29.3336 20.0974 29.3336 22.6673C29.3336 25.2363 28.4204 27.4344 26.5939 29.2607Z" fill="white"/>
<path d="M20.0002 16.6667C18.3474 16.6667 16.9342 17.2536 15.7605 18.4274C14.5868 19.601 14 21.014 14 22.6673C14 24.3198 14.5868 25.7331 15.7605 26.9067C16.9342 28.0802 18.3473 28.667 20.0002 28.667C21.6529 28.667 23.0663 28.0802 24.2399 26.9067C25.4136 25.7331 26.0005 24.3199 26.0005 22.6673C26.0005 21.0141 25.4136 19.6011 24.2399 18.4274C23.0663 17.2536 21.6529 16.6667 20.0002 16.6667Z" fill="white"/>
</svg>
